<?xml version="1.0" encoding="UTF-8" standalone="no"?>
<!DOCTYPE svg PUBLIC "-//W3C//DTD SVG 1.1//EN"
 "http://www.w3.org/Graphics/SVG/1.1/DTD/svg11.dtd">
<!-- Generated by graphviz version 2.40.1 (20161225.0304)
 -->
<!-- Title: d Pages: 1 -->
<svg width="727pt" height="602pt"
 viewBox="0.00 0.00 727.00 602.00" xmlns="http://www.w3.org/2000/svg" xmlns:xlink="http://www.w3.org/1999/xlink">
<g id="graph0" class="graph" transform="scale(1 1) rotate(0) translate(4 598)">
<title>d</title>
<polygon fill="#ffffff" stroke="transparent" points="-4,4 -4,-598 723,-598 723,4 -4,4"/>
<g id="clust1" class="cluster">
<title>cluster_source</title>
<polygon fill="none" stroke="#000000" points="180,-508 180,-586 391,-586 391,-508 180,-508"/>
<text text-anchor="middle" x="285.5" y="-569.2" font-family="Times,serif" font-size="16.00" fill="#000000">Source</text>
</g>
<g id="clust2" class="cluster">
<title>cluster_poly</title>
<polygon fill="none" stroke="#000000" points="8,-166 8,-500 294,-500 294,-166 8,-166"/>
<text text-anchor="middle" x="151" y="-483.2" font-family="Times,serif" font-size="16.00" fill="#000000">Polygonal Contouring</text>
</g>
<g id="clust5" class="cluster">
<title>cluster_web</title>
<polygon fill="none" stroke="#000000" points="302,-238 302,-500 434,-500 434,-238 302,-238"/>
<text text-anchor="middle" x="368" y="-483.2" font-family="Times,serif" font-size="16.00" fill="#000000">API Interpreter</text>
</g>
<g id="clust6" class="cluster">
<title>cluster_store</title>
<polygon fill="none" stroke="#000000" points="193,-8 193,-158 419,-158 419,-8 193,-8"/>
<text text-anchor="middle" x="306" y="-141.2" font-family="Times,serif" font-size="16.00" fill="#000000">Storage</text>
</g>
<g id="clust7" class="cluster">
<title>cluster_front</title>
<polygon fill="none" stroke="#000000" points="460,-8 460,-350 711,-350 711,-8 460,-8"/>
<text text-anchor="middle" x="585.5" y="-333.2" font-family="Times,serif" font-size="16.00" fill="#000000">Frontend</text>
</g>
<g id="clust9" class="cluster">
<title>cluster_cont</title>
<polygon fill="none" stroke="#000000" points="482,-238 482,-316 666,-316 666,-238 482,-238"/>
<text text-anchor="middle" x="574" y="-299.2" font-family="Times,serif" font-size="16.00" fill="#000000">Controls</text>
</g>
<!-- n -->
<g id="node1" class="node">
<title>n</title>
<polygon fill="#d3d3d3" stroke="#000000" points="284.5,-552 187.5,-552 187.5,-516 284.5,-516 284.5,-552"/>
<text text-anchor="middle" x="236" y="-530.3" font-family="Times,serif" font-size="14.00" fill="#000000">NetCDF Input</text>
</g>
<!-- d -->
<g id="node3" class="node">
<title>d</title>
<polygon fill="#d3d3d3" stroke="#000000" points="283.5,-466 164.5,-466 164.5,-430 283.5,-430 283.5,-466"/>
<text text-anchor="middle" x="224" y="-444.3" font-family="Times,serif" font-size="14.00" fill="#000000">NetCDF Decoding</text>
</g>
<!-- n&#45;&gt;d -->
<g id="edge8" class="edge">
<title>n&#45;&gt;d</title>
<path fill="none" stroke="#000000" d="M235.5,-515.7616C235.5,-515.7616 235.5,-476.2121 235.5,-476.2121"/>
<polygon fill="#000000" stroke="#000000" points="239.0001,-476.2121 235.5,-466.2121 232.0001,-476.2121 239.0001,-476.2121"/>
</g>
<!-- f -->
<g id="node2" class="node">
<title>f</title>
<polygon fill="#d3d3d3" stroke="#000000" points="383,-552 303,-552 303,-516 383,-516 383,-552"/>
<text text-anchor="middle" x="343" y="-530.3" font-family="Times,serif" font-size="14.00" fill="#000000">Fema APIs</text>
</g>
<!-- y -->
<g id="node8" class="node">
<title>y</title>
<polygon fill="#d3d3d3" stroke="#000000" points="398.5,-466 313.5,-466 313.5,-430 398.5,-430 398.5,-466"/>
<text text-anchor="middle" x="356" y="-444.3" font-family="Times,serif" font-size="14.00" fill="#000000">Get Request</text>
</g>
<!-- f&#45;&gt;y -->
<g id="edge9" class="edge">
<title>f&#45;&gt;y</title>
<path fill="none" stroke="#000000" d="M348.25,-515.7616C348.25,-515.7616 348.25,-476.2121 348.25,-476.2121"/>
<polygon fill="#000000" stroke="#000000" points="351.7501,-476.2121 348.25,-466.2121 344.7501,-476.2121 351.7501,-476.2121"/>
</g>
<!-- g -->
<g id="node4" class="node">
<title>g</title>
<polygon fill="#d3d3d3" stroke="#000000" points="162,-394 84,-394 84,-358 162,-358 162,-394"/>
<text text-anchor="middle" x="123" y="-372.3" font-family="Times,serif" font-size="14.00" fill="#000000">Tricontour</text>
</g>
<!-- d&#45;&gt;g -->
<g id="edge1" class="edge">
<title>d&#45;&gt;g</title>
<path fill="none" stroke="#000000" d="M164.372,-448C142.505,-448 123,-448 123,-448 123,-448 123,-404.1686 123,-404.1686"/>
<polygon fill="#000000" stroke="#000000" points="126.5001,-404.1686 123,-394.1686 119.5001,-404.1687 126.5001,-404.1686"/>
</g>
<!-- l -->
<g id="node6" class="node">
<title>l</title>
<polygon fill="#d3d3d3" stroke="#000000" points="286,-282 162,-282 162,-246 286,-246 286,-282"/>
<text text-anchor="middle" x="224" y="-260.3" font-family="Times,serif" font-size="14.00" fill="#000000">Level Interpolation</text>
</g>
<!-- d&#45;&gt;l -->
<g id="edge2" class="edge">
<title>d&#45;&gt;l</title>
<path fill="none" stroke="#000000" d="M224,-429.6847C224,-429.6847 224,-292.2412 224,-292.2412"/>
<polygon fill="#000000" stroke="#000000" points="227.5001,-292.2412 224,-282.2412 220.5001,-292.2413 227.5001,-292.2412"/>
</g>
<!-- z -->
<g id="node5" class="node">
<title>z</title>
<polygon fill="#d3d3d3" stroke="#000000" points="144,-282 16,-282 16,-246 144,-246 144,-282"/>
<text text-anchor="middle" x="80" y="-260.3" font-family="Times,serif" font-size="14.00" fill="#000000">Polygon Generation</text>
</g>
<!-- g&#45;&gt;z -->
<g id="edge3" class="edge">
<title>g&#45;&gt;z</title>
<path fill="none" stroke="#000000" d="M114,-357.5055C114,-357.5055 114,-292.1504 114,-292.1504"/>
<polygon fill="#000000" stroke="#000000" points="117.5001,-292.1503 114,-282.1504 110.5001,-292.1504 117.5001,-292.1503"/>
</g>
<!-- c -->
<g id="node7" class="node">
<title>c</title>
<polygon fill="#d3d3d3" stroke="#000000" points="276.5,-210 171.5,-210 171.5,-174 276.5,-174 276.5,-210"/>
<text text-anchor="middle" x="224" y="-188.3" font-family="Times,serif" font-size="14.00" fill="#000000">JSON Encoding</text>
</g>
<!-- z&#45;&gt;c -->
<g id="edge4" class="edge">
<title>z&#45;&gt;c</title>
<path fill="none" stroke="#000000" d="M80,-245.8314C80,-224.502 80,-192 80,-192 80,-192 161.1974,-192 161.1974,-192"/>
<polygon fill="#000000" stroke="#000000" points="161.1974,-195.5001 171.1974,-192 161.1974,-188.5001 161.1974,-195.5001"/>
</g>
<!-- l&#45;&gt;c -->
<g id="edge5" class="edge">
<title>l&#45;&gt;c</title>
<path fill="none" stroke="#000000" d="M224,-245.8314C224,-245.8314 224,-220.4133 224,-220.4133"/>
<polygon fill="#000000" stroke="#000000" points="227.5001,-220.4132 224,-210.4133 220.5001,-220.4133 227.5001,-220.4132"/>
</g>
<!-- j -->
<g id="node11" class="node">
<title>j</title>
<polygon fill="#d3d3d3" stroke="#000000" points="277,-124 201,-124 201,-88 277,-88 277,-124"/>
<text text-anchor="middle" x="239" y="-102.3" font-family="Times,serif" font-size="14.00" fill="#000000">File Cache</text>
</g>
<!-- c&#45;&gt;j -->
<g id="edge11" class="edge">
<title>c&#45;&gt;j</title>
<path fill="none" stroke="#000000" d="M238.75,-173.7616C238.75,-173.7616 238.75,-134.2121 238.75,-134.2121"/>
<polygon fill="#000000" stroke="#000000" points="242.2501,-134.2121 238.75,-124.2121 235.2501,-134.2121 242.2501,-134.2121"/>
</g>
<!-- k -->
<g id="node10" class="node">
<title>k</title>
<polygon fill="#d3d3d3" stroke="#000000" points="413.5,-394 314.5,-394 314.5,-358 413.5,-358 413.5,-394"/>
<text text-anchor="middle" x="364" y="-372.3" font-family="Times,serif" font-size="14.00" fill="#000000">JSON Decoder</text>
</g>
<!-- y&#45;&gt;k -->
<g id="edge6" class="edge">
<title>y&#45;&gt;k</title>
<path fill="none" stroke="#000000" d="M356.5,-429.8314C356.5,-429.8314 356.5,-404.4133 356.5,-404.4133"/>
<polygon fill="#000000" stroke="#000000" points="360.0001,-404.4132 356.5,-394.4133 353.0001,-404.4133 360.0001,-404.4132"/>
</g>
<!-- w -->
<g id="node9" class="node">
<title>w</title>
<polygon fill="#d3d3d3" stroke="#000000" points="426,-282 310,-282 310,-246 426,-246 426,-282"/>
<text text-anchor="middle" x="368" y="-260.3" font-family="Times,serif" font-size="14.00" fill="#000000">PostGIS Interface</text>
</g>
<!-- p -->
<g id="node13" class="node">
<title>p</title>
<polygon fill="#d3d3d3" stroke="#000000" points="411,-124 295,-124 295,-88 411,-88 411,-124"/>
<text text-anchor="middle" x="353" y="-102.3" font-family="Times,serif" font-size="14.00" fill="#000000">PostGIS Database</text>
</g>
<!-- w&#45;&gt;p -->
<g id="edge13" class="edge">
<title>w&#45;&gt;p</title>
<path fill="none" stroke="#000000" d="M360.5,-245.8754C360.5,-245.8754 360.5,-134.3999 360.5,-134.3999"/>
<polygon fill="#000000" stroke="#000000" points="364.0001,-134.3999 360.5,-124.3999 357.0001,-134.3999 364.0001,-134.3999"/>
</g>
<!-- k&#45;&gt;w -->
<g id="edge7" class="edge">
<title>k&#45;&gt;w</title>
<path fill="none" stroke="#000000" d="M364,-357.5055C364,-357.5055 364,-292.1504 364,-292.1504"/>
<polygon fill="#000000" stroke="#000000" points="367.5001,-292.1503 364,-282.1504 360.5001,-292.1504 367.5001,-292.1503"/>
</g>
<!-- s -->
<g id="node12" class="node">
<title>s</title>
<polygon fill="#d3d3d3" stroke="#000000" points="403,-52 317,-52 317,-16 403,-16 403,-52"/>
<text text-anchor="middle" x="360" y="-30.3" font-family="Times,serif" font-size="14.00" fill="#000000">Flask Server</text>
</g>
<!-- j&#45;&gt;s -->
<g id="edge10" class="edge">
<title>j&#45;&gt;s</title>
<path fill="none" stroke="#000000" d="M239,-87.8314C239,-66.502 239,-34 239,-34 239,-34 306.9992,-34 306.9992,-34"/>
<polygon fill="#000000" stroke="#000000" points="306.9993,-37.5001 316.9992,-34 306.9992,-30.5001 306.9993,-37.5001"/>
</g>
<!-- r -->
<g id="node14" class="node">
<title>r</title>
<polygon fill="#d3d3d3" stroke="#000000" points="579.5,-210 482.5,-210 482.5,-174 579.5,-174 579.5,-210"/>
<text text-anchor="middle" x="531" y="-188.3" font-family="Times,serif" font-size="14.00" fill="#000000">JSON Request</text>
</g>
<!-- s&#45;&gt;r -->
<g id="edge14" class="edge">
<title>s&#45;&gt;r</title>
<path fill="none" stroke="#000000" d="M413.1298,-40C413.1298,-40 418.5,-40 418.5,-40 418.5,-40 418.5,-192 418.5,-192 418.5,-192 472.3102,-192 472.3102,-192"/>
<polygon fill="#000000" stroke="#000000" points="413.1298,-36.5001 403.1298,-40 413.1298,-43.5001 413.1298,-36.5001"/>
<polygon fill="#000000" stroke="#000000" points="472.3102,-195.5001 482.3102,-192 472.3101,-188.5001 472.3102,-195.5001"/>
</g>
<!-- p&#45;&gt;s -->
<g id="edge12" class="edge">
<title>p&#45;&gt;s</title>
<path fill="none" stroke="#000000" d="M360,-77.8314C360,-77.8314 360,-62.4133 360,-62.4133"/>
<polygon fill="#000000" stroke="#000000" points="363.5,-62.4133 360,-52.4133 356.5,-62.4133 363.5,-62.4133"/>
<polygon fill="#000000" stroke="#000000" points="356.5,-77.8313 360,-87.8314 363.5,-77.8314 356.5,-77.8313"/>
</g>
<!-- u -->
<g id="node15" class="node">
<title>u</title>
<polygon fill="#d3d3d3" stroke="#000000" points="703,-124 575,-124 575,-88 703,-88 703,-124"/>
<text text-anchor="middle" x="639" y="-102.3" font-family="Times,serif" font-size="14.00" fill="#000000">Polygon Generation</text>
</g>
<!-- r&#45;&gt;u -->
<g id="edge15" class="edge">
<title>r&#45;&gt;u</title>
<path fill="none" stroke="#000000" d="M579.8908,-192C583.491,-192 585.75,-192 585.75,-192 585.75,-192 585.75,-134.2384 585.75,-134.2384"/>
<polygon fill="#000000" stroke="#000000" points="589.2501,-134.2384 585.75,-124.2384 582.2501,-134.2384 589.2501,-134.2384"/>
</g>
<!-- i -->
<g id="node17" class="node">
<title>i</title>
<polygon fill="#d3d3d3" stroke="#000000" points="556.5,-124 467.5,-124 467.5,-88 556.5,-88 556.5,-124"/>
<text text-anchor="middle" x="512" y="-102.3" font-family="Times,serif" font-size="14.00" fill="#000000">Local Impact</text>
</g>
<!-- r&#45;&gt;i -->
<g id="edge17" class="edge">
<title>r&#45;&gt;i</title>
<path fill="none" stroke="#000000" d="M519.5,-173.7616C519.5,-173.7616 519.5,-134.2121 519.5,-134.2121"/>
<polygon fill="#000000" stroke="#000000" points="523.0001,-134.2121 519.5,-124.2121 516.0001,-134.2121 523.0001,-134.2121"/>
</g>
<!-- m -->
<g id="node16" class="node">
<title>m</title>
<polygon fill="#d3d3d3" stroke="#000000" points="616.5,-52 533.5,-52 533.5,-16 616.5,-16 616.5,-52"/>
<text text-anchor="middle" x="575" y="-30.3" font-family="Times,serif" font-size="14.00" fill="#000000">Leaflet Map</text>
</g>
<!-- u&#45;&gt;m -->
<g id="edge16" class="edge">
<title>u&#45;&gt;m</title>
<path fill="none" stroke="#000000" d="M595.75,-87.8314C595.75,-87.8314 595.75,-62.4133 595.75,-62.4133"/>
<polygon fill="#000000" stroke="#000000" points="599.2501,-62.4132 595.75,-52.4133 592.2501,-62.4133 599.2501,-62.4132"/>
</g>
<!-- i&#45;&gt;s -->
<g id="edge18" class="edge">
<title>i&#45;&gt;s</title>
<path fill="none" stroke="#000000" d="M500.5,-87.9092C500.5,-64.8672 500.5,-28 500.5,-28 500.5,-28 413.3011,-28 413.3011,-28"/>
<polygon fill="#000000" stroke="#000000" points="413.3011,-24.5001 403.3011,-28 413.301,-31.5001 413.3011,-24.5001"/>
</g>
<!-- i&#45;&gt;m -->
<g id="edge19" class="edge">
<title>i&#45;&gt;m</title>
<path fill="none" stroke="#000000" d="M545,-87.8314C545,-87.8314 545,-62.4133 545,-62.4133"/>
<polygon fill="#000000" stroke="#000000" points="548.5001,-62.4132 545,-52.4133 541.5001,-62.4133 548.5001,-62.4132"/>
</g>
<!-- b -->
<g id="node18" class="node">
<title>b</title>
<polygon fill="#d3d3d3" stroke="#000000" points="658,-282 592,-282 592,-246 658,-246 658,-282"/>
<text text-anchor="middle" x="625" y="-260.3" font-family="Times,serif" font-size="14.00" fill="#000000">Colorbar</text>
</g>
<!-- b&#45;&gt;u -->
<g id="edge20" class="edge">
<title>b&#45;&gt;u</title>
<path fill="none" stroke="#000000" d="M625,-245.8754C625,-245.8754 625,-134.3999 625,-134.3999"/>
<polygon fill="#000000" stroke="#000000" points="628.5001,-134.3999 625,-124.3999 621.5001,-134.3999 628.5001,-134.3999"/>
</g>
<!-- t -->
<g id="node19" class="node">
<title>t</title>
<polygon fill="#d3d3d3" stroke="#000000" points="574,-282 490,-282 490,-246 574,-246 574,-282"/>
<text text-anchor="middle" x="532" y="-260.3" font-family="Times,serif" font-size="14.00" fill="#000000">Transection</text>
</g>
<!-- t&#45;&gt;r -->
<g id="edge21" class="edge">
<title>t&#45;&gt;r</title>
<path fill="none" stroke="#000000" d="M532,-245.8314C532,-245.8314 532,-220.4133 532,-220.4133"/>
<polygon fill="#000000" stroke="#000000" points="535.5001,-220.4132 532,-210.4133 528.5001,-220.4133 535.5001,-220.4132"/>
</g>
</g>
</svg>
